# xmcd
#
# Track frame offsets: 
#        150
#        15046
#        28414
#        40296
#        54280
#        67155
#        88500
#        100760
#        114099
#        127141
#        139374
#        151774
#
# Disc length: 2202 seconds
#
# Revision: 3
# Processed by: cddbd v1.5.2PL0 Copyright (c) Steve Scherf et al.
# Submitted via: ExactAudioCopyFreeDBPlugin 1.0
#
DISCID=9708980c
DTITLE=The Ronettes - Presenting the Fabulous Ronettes featuring Veron
DTITLE=ica
DYEAR=1964
DGENRE=Rhythm and Blues
TTITLE0=Walking in the Rain
TTITLE1=Do I Love You?
TTITLE2=So Young
TTITLE3=(The Best Part of) Breakin' Up
TTITLE4=I Wonder
TTITLE5=What'd I Say
TTITLE6=Be My Baby
TTITLE7=You Baby
TTITLE8=Baby, I Love You
TTITLE9=How Does it Feel?
TTITLE10=When I Saw You
TTITLE11=Chapel of Love
EXTD=Legacy 8697 92 782 2 YEAR: 1964
EXTT0=
EXTT1=
EXTT2=
EXTT3=
EXTT4=
EXTT5=
EXTT6=
EXTT7=
EXTT8=
EXTT9=
EXTT10=
EXTT11=
PLAYORDER=
